<svg width="39" height="35" viewBox="0 0 39 35" fill="none" xmlns="http://www.w3.org/2000/svg">
<path d="M26 1.82348C17.5 0.499994 5.51751 -0.372564 1.61602 3.47061C-0.652842 5.70559 -0.11793 9.24029 0.72698 11.8071C1.40044 13.853 3.43285 15 5.58672 15H9.37475L7.99432 21.0001C7.91106 21.002 6.95537 21.0445 5.99999 22C5.00005 23 5.00005 24 5.00005 24C-11.6514 24 33.8135 24 19.0002 24L19.4441 21.3365L20.3677 18H23C24.1045 18 25 14.1046 25 13H26.5C28.5 13 28.5 12.5 28.5 11V2.99999H27.3L27.2138 2.71264C27.0786 2.26205 26.5806 1.91387 26 1.82348Z" fill="url(#paint0_linear_414_7)"/>
<path d="M2.61602 26H4.61608H18.6162H21.616C22.1683 26 22.616 26.4477 22.616 27V33C22.616 34.1046 21.7206 35 20.616 35H3.61602C2.51146 35 1.61602 34.1046 1.61602 33V27C1.61602 26.4477 2.06371 26 2.61602 26Z" fill="url(#paint1_linear_414_7)"/>
<path d="M5.00005 24H19.0002C33.8135 24 -11.6514 24 5.00005 24Z" fill="url(#paint2_linear_414_7)"/>
<path d="M36.9132 11L30.4132 11V3.00001H36.9132C36.9132 3.00001 38.1632 4.00001 38.9132 4.00001V10C38.1632 10 36.9132 11 36.9132 11Z" fill="url(#paint3_linear_414_7)"/>
<defs>
<linearGradient id="paint0_linear_414_7" x1="38" y1="-2.69842" x2="-3.49998" y2="37.8016" gradientUnits="userSpaceOnUse">
<stop stop-color="#F97316"/>
<stop offset="1" stop-color="#DC2626"/>
</linearGradient>
<linearGradient id="paint1_linear_414_7" x1="38" y1="-2.69842" x2="-3.49998" y2="37.8016" gradientUnits="userSpaceOnUse">
<stop stop-color="#F97316"/>
<stop offset="1" stop-color="#DC2626"/>
</linearGradient>
<linearGradient id="paint2_linear_414_7" x1="38" y1="-2.69842" x2="-3.49998" y2="37.8016" gradientUnits="userSpaceOnUse">
<stop stop-color="#F97316"/>
<stop offset="1" stop-color="#DC2626"/>
</linearGradient>
<linearGradient id="paint3_linear_414_7" x1="38" y1="-2.69842" x2="-3.49998" y2="37.8016" gradientUnits="userSpaceOnUse">
<stop stop-color="#F97316"/>
<stop offset="1" stop-color="#DC2626"/>
</linearGradient>
</defs>
</svg>
